<svg xmlns="http://www.w3.org/2000/svg"><symbol id="icon-arrow" viewBox="0 0 53.8 22.6"><title>icon-arrow</title><path d="M52.4 9.9l-5.2-5.3L42.5 0l-1.4 1.4 6.1 6.1v2.8H0v2h47.2v2.9l-6.1 6 1.4 1.4 11.3-11.3z"/></symbol><symbol id="icon-close" viewBox="0 0 58 58"><title>icon-close</title><path d="M32.08 30.665v-3.332l11.77-11.769-1.414-1.413-11.768 11.768h-3.334l-11.77-11.768-1.413 1.414 11.77 11.77-.002 3.332-11.768 11.769 1.414 1.413 11.768-11.768 3.317-.016 11.786 11.784 1.413-1.414-11.77-11.77z"/></symbol><symbol id="logo-f" viewBox="0 0 32 32"><title>logo-f</title><path d="M15.947 32C7.153 32 0 24.823 0 16S7.153 0 15.946 0s15.947 7.177 15.947 16-7.153 16-15.946 16zm0-31.049c-8.271 0-15 6.75-15 15.049 0 8.298 6.728 15.048 14.998 15.048s15-6.75 15-15.048c0-8.3-6.728-15.05-14.999-15.05z"/><path d="M10.439 8.052l1.785 1.792v12.312l-1.785 1.792h8.212l-2.343-1.792v-5.753l3.076 3.127v-7.15l-3.076 3.128V9.395h2.342l3.347 3.806V8.052H10.44z" fill="#231F20"/></symbol><symbol id="logo-wordmark" viewBox="0 0 88 22"><title>logo-wordmark</title><path d="M5.885 2.406v6.13L9.42 4.945v8.082L5.885 9.435v5.77l2.35 1.796H0l1.79-1.796V2.857L0 1.061h12.307v5.165L8.95 2.409l-3.065-.003z"/><path d="M17.318 15.429L18.75 17h-6.624l1.5-1.571v-7.86L12.104 6h5.214v9.43zM15.46 4.854a2.004 2.004 0 01-2.013-1.998c0-1.145.896-2.02 2.014-2.02 1.119 0 1.991.875 1.991 2.02a1.984 1.984 0 01-1.992 1.998zm8.727 10.575L25.91 17h-6.467l1.119-1.571V7.57l-1.12-1.572h3.99l-.208 2.717h.09c.738-1.549 1.856-3.01 3.4-3.01.29 0 .873.113 1.03.292v3.615h-3.558v5.816zm13.784-4.738h-6.198c.089 2.47 1.588 3.592 3.11 3.592 1.364 0 2.013-.561 2.84-1.28l.515.224c-.761 2.514-2.304 4.064-4.631 4.064-3.29 0-4.969-2.695-4.969-5.59 0-3.167 2.06-5.995 4.992-5.995 2.774 0 4.34 1.819 4.34 3.861v1.124h.001zm-3.2-1.324v-.315c0-1.122-.426-1.706-1.231-1.706-.694 0-1.41.718-1.678 2.02l2.909.001zm8.792-2.807c.626-.381 1.477-.853 2.686-.853 2.842 0 4.475 2.38 4.475 5.389 0 3.435-1.925 6.197-5.46 6.197-2.641 0-4.117-.763-5.392-1.526V2.407L38.349 1.06h5.17v5.501h.044zm0 8.824h.874c1.141 0 2.484-.561 2.484-3.346 0-2.783-.783-3.794-2.64-3.794h-.718v7.14zm17.721-4.693h-6.199c.089 2.47 1.588 3.592 3.11 3.592 1.364 0 2.014-.561 2.842-1.28l.515.224c-.76 2.514-2.305 4.064-4.632 4.064-3.288 0-4.968-2.695-4.968-5.59 0-3.167 2.059-5.995 4.991-5.995 2.774 0 4.34 1.819 4.34 3.861v1.124zm-3.2-1.324v-.315c0-1.122-.424-1.706-1.23-1.706-.695 0-1.41.718-1.679 2.02l2.91.001zm9.241 6.062L68.758 17h-6.624l1.499-1.571V2.63l-1.499-1.572h5.191v14.37zm6.935 0L75.693 17h-6.625l1.5-1.571V2.63l-1.5-1.572h5.191l.001 14.37zm2.44 3.143h4.61L75.984 5.998h6.221L80.817 7.57l2.596 6.4h.046l1.61-4.334-1.633-3.638H88l-5.012 12.887c-.604 1.617-1.902 2.785-3.29 2.785-1.41.001-2.997-.898-2.997-3.098z"/><path d="M8.95 2.407l5.855 6.656.233-1.717-2.731-1.356-3.358-3.583z"/></symbol><symbol id="logo" viewBox="0 0 48.9 176.2"><title>logo</title><path d="M17.1 101.3l-1.6 2.1v-7.5l1.6 1.6h11.2l1.6-1.6v11.2h-4.5v4.6h-8.6l-1.4 1.3v-6l1.4 1.4h7l1.4-1.2.2-.2 3.3-2.9v-2.8h-5.6l3.3 3.2h-7.3l3.3-3.2h-5.3zm11.2 6.9c-1 0-1.8.8-1.8 1.8s.8 1.8 1.8 1.8 1.8-.8 1.8-1.8c.1-1-.7-1.8-1.8-1.8zm-2.8 13c.2-.1.3-.7.3-.9 0-1.4-1.3-2.4-2.7-3.1v-.1l2.5.2v-3.6l-1.4 1h-7.1l-1.4-1v5.9l1.4-1.6h5.3v3.2h3.1zm-10.3 5.4c0-3 2.4-4.5 5.1-4.5 2.9 0 5.5 1.9 5.5 4.6 0 2.5-1.7 4-3.5 4h-1V125c-2.2.1-3.3 1.4-3.3 2.8 0 1.2.5 1.8 1.2 2.6l-.2.5c-2.4-.8-3.8-2.2-3.8-4.3zm7.2 1h.3c1 0 1.6-.4 1.6-1.1 0-.6-.7-1.3-1.8-1.5l-.1 2.6zm-7.2 9.6c0-2.4.7-3.8 1.4-4.9h12.1l1.2-1.4v4.7h-5c.3.6.8 1.3.8 2.4 0 2.6-2.2 4.1-4.9 4.1-3.1.1-5.6-1.7-5.6-4.9zm1.7-.7c0 1 .5 2.3 3 2.3s3.4-.7 3.4-2.4v-.7h-6.5v.8zm4.3 15.3v-5.7c-2.2.1-3.3 1.4-3.3 2.8 0 1.2.5 1.8 1.2 2.6l-.2.5c-2.3-.7-3.7-2.1-3.7-4.2 0-3 2.4-4.5 5.1-4.5 2.9 0 5.5 1.9 5.5 4.6 0 2.5-1.7 4-3.5 4h-1.1zm1.2-2.9h.3c1 0 1.6-.4 1.6-1.1 0-.6-.7-1.3-1.8-1.5l-.1 2.6zm-5.5 5.1l-1.4-1.4v6l1.4-1.3H30v-4.7l-1.4 1.4H16.9zm0 6.3l-1.4-1.4v6l1.4-1.3H30v-4.7l-1.4 1.4H16.9zm-2.9 5.6c-2 0-2.8 1.4-2.8 2.7 0 1.3 1.1 2.5 2.5 3l11.7 4.6V172l-3.3 1.5-3.9-1.5 5.8-2.4 1.4 1.3v-5.7L14 170.1v-4.2zm10.5-117C11 48.9 0 37.9 0 24.5 0 11 11 0 24.5 0S49 11 49 24.5 37.9 48.9 24.5 48.9zm0-47.4c-12.7 0-23 10.3-23 23s10.3 23 23 23 23-10.3 23-23-10.4-23-23-23zM16 12.3l2.7 2.7v18.8L16 36.6h12.6L25 33.9v-8.8l4.7 4.8v-11L25 23.7v-9.3h3.6l5.1 5.8v-7.9H16z"/></symbol></svg>