<svg xmlns="http://www.w3.org/2000/svg" width="95" height="95" viewBox="0 0 95 95">
  <g fill="none" fill-rule="evenodd">
    <path fill="#FFF" d="M94.5,47.5 C94.5,73.458 73.458,94.5 47.5,94.5 C21.542,94.5 0.5,73.458 0.5,47.5 C0.5,21.542 21.542,0.5 47.5,0.5 C73.458,0.5 94.5,21.542 94.5,47.5"/>
    <path stroke="#1F191A" d="M94.5,47.5 C94.5,73.458 73.458,94.5 47.5,94.5 C21.542,94.5 0.5,73.458 0.5,47.5 C0.5,21.542 21.542,0.5 47.5,0.5 C73.458,0.5 94.5,21.542 94.5,47.5 Z"/>
    <polygon fill="#1F191A" points="22.764 53.442 17.1 47.746 22.764 42.083 23.884 43.171 20.3 46.786 39.819 46.786 39.819 48.355 19.948 48.355 23.916 52.29"/>
    <polygon fill="#1F191A" points="55.18 46.786 74.699 46.786 71.115 43.203 72.235 42.082 77.898 47.746 72.235 53.41 71.115 52.322 75.051 48.354 55.18 48.354"/>
  </g>
</svg>
