<?xml version="1.0" encoding="utf-8"?>
<!-- Generator: Adobe Illustrator 21.1.0, SVG Export Plug-In . SVG Version: 6.00 Build 0)  -->
<svg version="1.1" id="Layer_1" xmlns="http://www.w3.org/2000/svg" xmlns:xlink="http://www.w3.org/1999/xlink" x="0px" y="0px"
	 viewBox="0 0 800 800" style="enable-background:new 0 0 800 800;" xml:space="preserve">
<style type="text/css">
	.st0{fill:#231F20;}
</style>
<g>
	<g>
		<path class="st0" d="M400,800C179.4,800,0,620.6,0,400S179.4,0,400,0s400,179.4,400,400S620.6,800,400,800z M400,15.3
			C187.9,15.3,15.3,187.9,15.3,400S187.9,784.7,400,784.7S784.7,612.1,784.7,400S612.1,15.3,400,15.3z"/>
	</g>
	<g>
		<polygon class="st0" points="261.8,201.3 306.6,246.1 306.6,553.9 261.8,598.7 467.8,598.7 409.1,553.9 409.1,410.1 486.2,488.2 
			486.2,309.5 409.1,387.7 409.1,234.9 467.8,234.9 551.8,330 551.8,201.3 		"/>
	</g>
</g>
<g>
</g>
<g>
</g>
<g>
</g>
<g>
</g>
<g>
</g>
<g>
</g>
<g>
</g>
<g>
</g>
<g>
</g>
<g>
</g>
<g>
</g>
<g>
</g>
<g>
</g>
<g>
</g>
<g>
</g>
</svg>
